
<global>
amp_veltrack=0
ampeg_release=0.50
</global>

<group>
group_label=PP
lpc_hicc1=42
lpc_locc1=0

<region>
hikey=a3
hivel=127
lokey=g#3
loop_end=247595
loop_mode=loop_continuous
loop_start=67201
loop_xfade=18671
lovel=1
lpc=tT3cQimQJMMTcaBCpcxNwsj0kUC1RnpAJphRQDPxe8B89iNBN3XhQK34C0E3KeVAdFr+v/Lp1T8ATptANDxMwUVry8ByjKlAzncawYBxssBp7ZtA9f+GwMaGksCGq25B
lpc_rms=-28.05
offset=1624
pitch_keycenter=a3
sample=Clarinet_accent_PP_A3.opus
tune=-26
</region>

<region>
hikey=a4
hivel=127
lokey=g#4
loop_end=262249
loop_mode=loop_continuous
loop_start=69168
loop_xfade=19218
lovel=1
lpc=8FrXQt66HcMYe4hCXRsOwhB3mEFLVefAp/MCQm1o98F/flZBFK0ivTV5UsEg1HBB5vZywFaID0BuIT9ABHz8wKLsg0AreZBA34u5wPDgrL9vclnAcldaP0nVOUAZnupA
lpc_rms=-27.56
offset=696
pitch_keycenter=a4
sample=Clarinet_accent_PP_A4.opus
tune=-27
</region>

<region>
hikey=a5
hivel=127
lokey=g#5
loop_end=256692
loop_mode=loop_continuous
loop_start=70514
loop_xfade=19591
lovel=1
lpc=gXcDQ1gLTsPNyghDHoKTwvhnEULsPZHAfqOevzyfdcDXNZpB8FubwDQcWcGIeL9A98wgQDB7Kz9raplA1D1ywdtdx0B1/TxBlQMRwNdx67+ZQkJBHk28wfVT8EFmZAHC
lpc_rms=-24.62
offset=382
pitch_keycenter=a5
sample=Clarinet_accent_PP_A5.opus
tune=-31
</region>

<region>
hikey=b3
hivel=127
lokey=a#3
loop_end=256410
loop_mode=loop_continuous
loop_start=67595
loop_xfade=18780
lovel=1
lpc=ZtPuQoK0TsMp5uVCv6iFwm2nk0Hh/05B1ngmQWlOusC7lytBaYsRQJPLQcArpWVAGprYwEwsgD+V95dAOKJZwQ93nD3hNexA8BvLwMXEzj/204JAfIfPwFYrgMDAzxpB
lpc_rms=-26.01
offset=2590
pitch_keycenter=b3
sample=Clarinet_accent_PP_B3.opus
tune=-23
</region>

<region>
hikey=b4
hivel=127
lokey=a#4
loop_end=253689
loop_mode=loop_continuous
loop_start=66250
loop_xfade=18407
lovel=1
lpc=xd0PQ2QvJsPmX4FCoRCIwjVWHUJRGK7B5jvCQShswcCO5tNAErsQwE79nkC4AxTAmBQUwUinH0GkiFrB/r8WQfI0XUD/YK2+N9g1QfdRGcH9U9FAg4zMQFn4GsAVaj++
lpc_rms=-25.75
offset=473
pitch_keycenter=b4
sample=Clarinet_accent_PP_B4.opus
tune=-23
</region>

<region>
hikey=b5
hivel=127
lokey=a#5
loop_end=249537
loop_mode=loop_continuous
loop_start=67176
loop_xfade=18664
lovel=1
lpc=5OskQsBRksIgKlhCAvrGwR/bSkFzET3ALUrZv1HZl8CN8hxBQg0rwP4/38AQLANBScktP/g1AMHqoPZA1jBcwDxMBkAZMlTA/z47QF9d3T8DpyTAKKbDQDJgmsGzhRVB
lpc_rms=-33.32
offset=1518
pitch_keycenter=b5
sample=Clarinet_accent_PP_B5.opus
tune=-27
</region>

<region>
hikey=c#4
hivel=127
lokey=c4
loop_end=257380
loop_mode=loop_continuous
loop_start=70086
loop_xfade=19472
lovel=1
lpc=4IymQllhC8Ml40dCmlSMwQGam0FGUgJBBWEBQefL68DLM34+IKzCP6hokcA3bmC/q1P7v7XML8DMu6Q/mwsMwGB2oT9PsStBeqejPtf9E8AQL9e/Q4KpwDaBLcG4hmFB
lpc_rms=-30.63
offset=376
pitch_keycenter=c#4
sample=Clarinet_accent_PP_C#4.opus
tune=-30
</region>

<region>
hikey=c#5
hivel=127
lokey=c5
loop_end=260838
loop_mode=loop_continuous
loop_start=69469
loop_xfade=19301
lovel=1
lpc=r7UQQ9EoVsNSWYBCQrugwPXdv0H3eqTAil6SP8Ia3UDOLxc/C8boPx+sTcDqvYLAUHDhvzE4C0BoRqNAAbXePwTuc78Zg4jAHQytPld10UBSyeRAiKWFv8/5xcGv1L5B
lpc_rms=-24.95
offset=8130
pitch_keycenter=c#5
sample=Clarinet_accent_PP_C#5.opus
tune=-32
</region>

<region>
hikey=c#6
hivel=127
lokey=c6
loop_end=275624
loop_mode=loop_continuous
loop_start=75879
loop_xfade=21082
lovel=1
lpc=ps+EQuNswcKXe3dCmv7UwZ6rj0HCVcLATucaQBzcEsE82BpBX4IiP21ymsBXKgZBb2b0wMpOO0DsKyhA8vJQwDKiuUCAFhLAbMKJPtTQGcCDSg/Bot52wQz/sUHSwwLB
lpc_rms=-29.79
offset=333
pitch_keycenter=c#6
sample=Clarinet_accent_PP_C#6.opus
tune=-48
</region>

<region>
hikey=d#4
hivel=127
lokey=d4
loop_end=280073
loop_mode=loop_continuous
loop_start=87455
loop_xfade=24298
lovel=1
lpc=9DfkQk0XEMOwbSBCqXD5wX8lY0E4by+/yjI8QU8GCcF1mYpA1m2mQEl1esCIIplA70wawEgs+T/wJZBAZLBTwOcvib8DU2BAv3kowHDb58D+VXHAQVGiPgyaaMDb4HJB
lpc_rms=-29.44
offset=276
pitch_keycenter=d#4
sample=Clarinet_accent_PP_D#4.opus
tune=-28
</region>

<region>
hikey=d#5
hivel=127
lokey=d5
loop_end=239021
loop_mode=loop_continuous
loop_start=81680
loop_xfade=22693
lovel=1
lpc=BkxKQhLTqcKVt0ZC+XvFwTr/j0GcFhdAQ8WGwKrfdsCiq/pAguggwFl17z0/40k/GHNCPw0FpcCisMNAFhtCwH6XrUCW2ADAFJn/P3GaEkDXaq3AcDayP35qrsCO+yJB
lpc_rms=-30.58
offset=1322
pitch_keycenter=d#5
sample=Clarinet_accent_PP_D#5.opus
tune=-42
</region>

<region>
hikey=d#6
hivel=127
lokey=d6
loop_end=271325
loop_mode=loop_continuous
loop_start=72253
loop_xfade=20075
lovel=1
lpc=xbBjQrdJvsK5UpBCs9PswTBLikGE+WHB29yWQUS6qMFqjqZBO2RMwTYT0kB/DuE/DW6gwChk/UA9jsbAxZXTQOgCl8CdPpZA9jjkwO3hDMLG5nlCnQUWwlv6r0B8o6Y8
lpc_rms=-27.04
offset=7817
pitch_keycenter=d#6
sample=Clarinet_accent_PP_D#6.opus
tune=-41
</region>

<region>
hikey=f4
hivel=127
lokey=e4
loop_end=255840
loop_mode=loop_continuous
loop_start=67249
loop_xfade=18684
lovel=1
lpc=IlgQQznaOcO0FyNCGi34wVARy0HU8IlA78GdQSFCLsHx+t4+R44uQMwwB8H5CGZA0U00wGQkr7+KnpJAMBPLwK7+u0CQuiJBtKlnwLzuDMAPY7DAmjd9wFYgDcENip9B
lpc_rms=-27.67
offset=743
pitch_keycenter=f4
sample=Clarinet_accent_PP_F4.opus
tune=-28
</region>

<region>
hikey=f5
hivel=127
lokey=e5
loop_end=273657
loop_mode=loop_continuous
loop_start=73572
loop_xfade=20441
lovel=1
lpc=2cAPQ1EHb8MT5RpDv9qewuQuHEKehEdBcFbKPwq3W8FCFkdBfvZxv6jhK8ACg8lANW6BwC7wvj+M4mxB2kEhwQAmGUBudB5BMB6iwJKuNj/PcN9Arc0UwZnqO0HQyqpA
lpc_rms=-23.81
offset=2026
pitch_keycenter=f5
sample=Clarinet_accent_PP_F5.opus
tune=-36
</region>

<region>
hikey=f6
hivel=127
lokey=e6
loop_end=277984
loop_mode=loop_continuous
loop_start=79789
loop_xfade=22168
lovel=1
lpc=PlHJQr/jIsM/kfZCnydgwr2LH0LZIY/BrtUCQeWWPMEZuppBAH82wZEll0DF8uxAfSbcwIfIEEFeHLjAW+ykQW5jaMIoPqK+RhqXQsdBh8LKQ9tBgqu9wcYZjUFYqSTA
lpc_rms=-23.22
offset=7226
pitch_keycenter=f6
sample=Clarinet_accent_PP_F6.opus
tune=-39
</region>

<region>
hivel=127
key=g3
loop_end=246250
loop_mode=loop_continuous
loop_start=74781
loop_xfade=20777
lovel=1
lpc=8QafQkZiA8NV7nJCWwzGwbgt7kCEZazASkR7QQMyVcDBlMS/Gmx4QYJYGsHb58RArPChwHC0EcCNsiVAoaE3wU/gTEBgT0RAm2szwFRkiz9krEtAFbwnv4T/XD/r+Nw8
lpc_rms=-29.25
offset=1212
sample=Clarinet_accent_PP_G3.opus
tune=-19
</region>

<region>
hikey=g4
hivel=127
lokey=f#4
loop_end=266099
loop_mode=loop_continuous
loop_start=71795
loop_xfade=19947
lovel=1
lpc=dE0mQ0/SY8MJRJtCTt8ZwrF+7EFdq7jAK797QVNWz8EVImJBIX1bQYmMecG1Lx5BB1ptv6I8W8DqYA5BFM0DwdV3XED4aJHAncwIwY3RLkC8tsFAuVA1QEbz9cCYimlB
lpc_rms=-25.26
offset=1368
pitch_keycenter=g4
sample=Clarinet_accent_PP_G4.opus
tune=-27
</region>

<region>
hikey=g5
hivel=127
lokey=f#5
loop_end=255520
loop_mode=loop_continuous
loop_start=69998
loop_xfade=19448
lovel=1
lpc=yEClQo/TIcP4sAVDg7NcwnGI4EFH35S/BnNEwa9rksAzWKxBeM4ZPyb72sCCL5pA6q0TQD2Kkb/0d/FAepPFwA+qV0BQpyBBm8r/v3yhmb91OOFAD0ZvwY8MskFmvDbA
lpc_rms=-26.92
offset=661
pitch_keycenter=g5
sample=Clarinet_accent_PP_G5.opus
tune=-40
</region>

<region>
hikey=C7
hivel=127
lokey=f#6
loop_end=235954
loop_mode=loop_continuous
loop_start=87825
loop_xfade=24401
lovel=1
lpc=0DdEQvEJlcI7S3xCwAYKwhy0qEGjhlTAUGurwDE4eT9V7hJBX/vawDZ5DEFTDwLBxY9OQcTVYsGu8IxBIa1bwqhKdULA1gTCiEmuQF+xhkCPw1bB4MqIQTFB28BtkJq/
lpc_rms=-26.13
offset=1131
pitch_keycenter=G6
sample=Clarinet_accent_PP_G6.opus
tune=-19
</region>
</group>

<group>
group_label=MF
lpc_hicc1=84
lpc_locc1=43

<region>
hikey=a3
hivel=127
lokey=g#3
loop_end=278079
loop_mode=loop_continuous
loop_start=74493
loop_xfade=20697
lovel=1
lpc=8PCMQk1+V8P2n4RDeIM0w9oPokIitrbBcLteQLA3C8Eh/X9BEhZ/wKD278CG7bM/GFq4v6NmMUA291hAjtnpwOvUWD9ZFRhBQ9/TwEV2h0Dav4HAMydywC/fekAfG2Q+
lpc_rms=-19.61
offset=6411
pitch_keycenter=a3
sample=Clarinet_accent_MF_A3.opus
tune=-14
</region>

<region>
hikey=a4
hivel=127
lokey=g#4
loop_end=265146
loop_mode=loop_continuous
loop_start=81878
loop_xfade=22749
lovel=1
lpc=szqAQqXTHsMHmR5DcDumwmDtJkK5pezB7g91QdoPk8EOgaVBdfFLwL+BFsEkWRJBT6UAwcgQCUFN47TAEaDuvkS1oj+WTZ8/LVpMv075yz9lpPjAY8dsQZopcMHiOxlB
lpc_rms=-19.22
offset=375
pitch_keycenter=a4
sample=Clarinet_accent_MF_A4.opus
tune=-20
</region>

<region>
hikey=a5
hivel=127
lokey=g#5
loop_end=274523
loop_mode=loop_continuous
loop_start=88018
loop_xfade=24455
lovel=1
lpc=FVMBQ9G8fcPAyYJD0/Qgw7K3mEIxR4M/0/j7wdtpskFAHuRBBhSrwfW+DsHqC7hBerqJQXnPJsLwsYdCihkswpUxbMFgVY1CJgQYwhrcHcF4LDxCYuhQwhXKiEJHUA7C
lpc_rms=-15.45
offset=1985
pitch_keycenter=a5
sample=Clarinet_accent_MF_A5.opus
tune=-33
</region>

<region>
hikey=b3
hivel=127
lokey=a#3
loop_end=270995
loop_mode=loop_continuous
loop_start=88159
loop_xfade=24494
lovel=1
lpc=/zg7QodBF8P0sVJDe/4nwzRWnkK2SXLBlsBzwF4m5sD71bxBLhqqwShptkCI134+Tt82QSw4y8GYCJlB8aycwM7Eg7/oRRJBlXCKwdA1hUEqJT/B9awCQc5JmMCQC8Q/
lpc_rms=-18.93
offset=1662
pitch_keycenter=b3
sample=Clarinet_accent_MF_B3.opus
tune=-14
</region>

<region>
hikey=b4
hivel=127
lokey=a#4
loop_end=285961
loop_mode=loop_continuous
loop_start=86841
loop_xfade=24127
lovel=1
lpc=Dk8IQz3sj8Mnk3dDRIDnwifwh0K5tXHCSXsbQld6tsG54alBNppDwe5hMcAAMBi/CgXBP/5WeEHdzsHBXMNlQaEk98DfNdlAq8h1QO27PcH4pixBhyDlQHoaZcH5GH9B
lpc_rms=-16.17
offset=302
pitch_keycenter=b4
sample=Clarinet_accent_MF_B4.opus
tune=-28
</region>

<region>
hikey=b5
hivel=127
lokey=a#5
loop_end=299981
loop_mode=loop_continuous
loop_start=89016
loop_xfade=24732
lovel=1
lpc=UC5VQuzV58I6RvxCE+OYwlmSl0Gp5uZBGQIMwmTRnkGQSbBAz7EdwQ9cbUFianXB1mbOQSv67MFbjRtCiK8Mwj5cF0KTyhzCyekxQlt2q8G7oGfBZZdhQkwwf8IZ1upB
lpc_rms=-21.30
offset=9318
pitch_keycenter=b5
sample=Clarinet_accent_MF_B5.opus
tune=-29
</region>

<region>
hikey=c#4
hivel=127
lokey=c4
loop_end=267487
loop_mode=loop_continuous
loop_start=85859
loop_xfade=23855
lovel=1
lpc=CRdUQqYFMsPZGHRDRTYywxDpl0KGKhTBj3CmwY3eO0Hg2lxBdY+VwaIBNEEqUBHB/7yEQd8qD8I7cyxClt4Iwteq5UEWSpPBkSd1QBA4b8D0i7xAOWoAQehghcGlBeZA
lpc_rms=-19.94
offset=882
pitch_keycenter=c#4
sample=Clarinet_accent_MF_C#4.opus
tune=-24
</region>

<region>
hikey=c#5
hivel=127
lokey=c5
loop_end=287162
loop_mode=loop_continuous
loop_start=89985
loop_xfade=25001
lovel=1
lpc=CP4XQ/Pet8OopaxDz0kgw1WkdEKM6ArC03d9QbO1WsH/b5ZAEhiaQbHYi8EsuHpBmS4Ewm9+FkKgL6rByAFFQDbr48CSEqlBFh6JwG96LcFuaqFAE7cNQjDAbsJ1ne5B
lpc_rms=-15.14
offset=13205
pitch_keycenter=c#5
sample=Clarinet_accent_MF_C#5.opus
tune=-37
</region>

<region>
hikey=c#6
hivel=127
lokey=c6
loop_end=269171
loop_mode=loop_continuous
loop_start=78234
loop_xfade=21736
lovel=1
lpc=M4w+QvYbrcJnwqhCYmlZwiRZIUJzJbnBh2GQQRqOgMEgRq1Blnd1wZe1B0FT0ilAv7aIwD7820DxsJI/3o/DwMSxT0HCkxDB0OcDQS1BMsCMc8U/mY/lwaFRJEI1vKHB
lpc_rms=-20.44
offset=977
pitch_keycenter=c#6
sample=Clarinet_accent_MF_C#6.opus
tune=-41
</region>

<region>
hikey=d#4
hivel=127
lokey=d4
loop_end=275084
loop_mode=loop_continuous
loop_start=88378
loop_xfade=24554
lovel=1
lpc=Kb49QuP4C8MJnyJD7FDMwvrzYkIAihbChQV1QbRkP8Gid6BBrog0weWZKD8TQCNAMeqzwJMPtEACdwk+x4UGwb2MMEErene/250NwVr+70AbI/HALIARQSOxzMDFEilA
lpc_rms=-20.63
offset=591
pitch_keycenter=d#4
sample=Clarinet_accent_MF_D#4.opus
tune=-19
</region>

<region>
hikey=d#5
hivel=127
lokey=d5
loop_end=279810
loop_mode=loop_continuous
loop_start=87895
loop_xfade=24420
lovel=1
lpc=YNvZQa9bl8JTA8VCv7KmwvEwYEK6rP7BuFFgQSpWXMCZlpFAEKcnwbCWKUFvH2s/E6w9wZrME0ECvfg/l3Ixwa28d0F1JRHBTT4nwN1WPEFyQVDBNYUfQQBJAMGDMJ5A
lpc_rms=-23.36
offset=909
pitch_keycenter=d#5
sample=Clarinet_accent_MF_D#5.opus
tune=-36
</region>

<region>
hikey=d#6
hivel=127
lokey=d6
loop_end=284838
loop_mode=loop_continuous
loop_start=88269
loop_xfade=24524
lovel=1
lpc=fxVfQqVOtMJTaKdCuIkzwn+AwkHVI0bBuUaFQfcPY8GvBW1BzYbqwAK3kkCBWyJA10EmvxAtG0CLJ2c/kzlBQC4cZsA0VgJBDLD8wFO2H8JbDpBCBvZ1wqBv6UEvDxDB
lpc_rms=-18.68
offset=627
pitch_keycenter=d#6
sample=Clarinet_accent_MF_D#6.opus
tune=-44
</region>

<region>
hikey=f4
hivel=127
lokey=e4
loop_end=280795
loop_mode=loop_continuous
loop_start=87774
loop_xfade=24387
lovel=1
lpc=wyhcQmN1LcMG5WpDIcg4w74DykLaOiPCUt46QcM2icEzMOBBMqufwZqCbkGC53bB3+EyQfD5ZsEzp7BBeQT5wUzQOUJs8zfCLRyrQWqRjb9/VhTBUBa5QXVT1MHwwThB
lpc_rms=-18.80
offset=729
pitch_keycenter=f4
sample=Clarinet_accent_MF_F4.opus
tune=-26
</region>

<region>
hikey=f5
hivel=127
lokey=e5
loop_end=282576
loop_mode=loop_continuous
loop_start=88272
loop_xfade=24525
lovel=1
lpc=bRJmQk6ECsNH1hpDsMzTwqOTVkKlbZjBLheKQcRbrsFBd01BJ7UhwPst3UBQcpi/KogCwRdOHUE44ArAD24dQGXUrcBxz7pA9Lx7QN3acsC2vizBY3gDQuoBEcI53J5B
lpc_rms=-20.61
offset=1273
pitch_keycenter=f5
sample=Clarinet_accent_MF_F5.opus
tune=-35
</region>

<region>
hikey=f6
hivel=127
lokey=e6
loop_end=273402
loop_mode=loop_continuous
loop_start=75567
loop_xfade=20995
lovel=1
lpc=nwdbQkP4r8INvZhCu8fAwfxlr8Cn5INB9JXowAu/vEA0bf6/nzapQJe1VcD/m/VAbKajwJedAUF8frnAs6dIQS7rrcE2YrTBuPWPQnd/ocLwdzdCAFtMwedYBMCiIeI/
lpc_rms=-18.72
pitch_keycenter=f6
sample=Clarinet_accent_MF_F6.opus
tune=-38
</region>

<region>
hivel=127
key=g3
loop_end=240876
loop_mode=loop_continuous
loop_start=69801
loop_xfade=19393
lovel=1
lpc=75d7QsHwRsOqEYNDaL9Bw6V8qUIFGSfBzow2wcOAPMBhLnBB0MmKv19iMsFzCrpADAdxv61G0T/iREA/o2wYwf4svkBbq/ZAPvgBwWt2KECPk4W/AX9jwNb54kCMtVDA
lpc_rms=-21.01
sample=Clarinet_accent_MF_G3.opus
tune=-9
</region>

<region>
hikey=g4
hivel=127
lokey=f#4
loop_end=270844
loop_mode=loop_continuous
loop_start=87913
loop_xfade=24425
lovel=1
lpc=NCOOQvbRQsN2QFlDM00Ew4nfjEJA/kbCe5XsQaw44cEdKAFCuWEHwUUHfsEz3phBUcwwwbbDm79fQi9A8OkuQFvvIUDE4p3ArqE6wM0hjEBoRcXAK12fQRTp4MFb6HVB
lpc_rms=-19.08
offset=853
pitch_keycenter=g4
sample=Clarinet_accent_MF_G4.opus
tune=-20
</region>

<region>
hikey=g5
hivel=127
lokey=f#5
loop_end=283302
loop_mode=loop_continuous
loop_start=87930
loop_xfade=24430
lovel=1
lpc=Ck4SQsPfsMK4L/dC0Q3swlp5skJUjTjCR/2pQZseW8FmkZ5BlxuVwZaUVUGS8jVAj9oTwfot1kBwLytBgerAwcmABkIENfPBrhjHQY+aB8GInkrAnFtnQc/ZgsE7vk9B
lpc_rms=-19.31
offset=1123
pitch_keycenter=g5
sample=Clarinet_accent_MF_G5.opus
tune=-38
</region>

<region>
hikey=C7
hivel=127
lokey=f#6
loop_end=254777
loop_mode=loop_continuous
loop_start=69254
loop_xfade=19241
lovel=1
lpc=oBDwQrpqHMPAkdFCFEGbQMUtAcI3SmFCV1zcwDUVA8JoPFFCaG+nwOvaMkHzGxQ/wHIdQdRWncBUoaxBbWYAwxKmG0My8J3CluOrwciFQEIx0U7CihjUQOSKF0L8ah/C
lpc_rms=-15.27
pitch_keycenter=G6
sample=Clarinet_accent_MF_G6.opus
tune=-27
</region>
</group>

<group>
group_label=FF
lpc_hicc1=127
lpc_locc1=85

<region>
hikey=a3
hivel=127
lokey=g#3
loop_end=252857
loop_mode=loop_continuous
loop_start=76788
loop_xfade=21334
lovel=1
lpc=61LFQbLwj8IL8LRCsFGGwpd4BELmZSTB4M/+vwB0VEBSlo9AWl3RwJTkS0A7BGK/LSdzv/og274byAhA3TodwMwakD9lcKBAlXwuwRL3KkGVQOvA1JfsQFVa68Cj+DhA
lpc_rms=-15.21
offset=635
pitch_keycenter=a3
sample=Clarinet_accent_FF_A3.opus
tune=-9
</region>

<region>
hikey=a4
hivel=127
lokey=g#4
loop_end=288016
loop_mode=loop_continuous
loop_start=76712
loop_xfade=21313
lovel=1
lpc=9gX9QRBPmcJsyJxCjZItwtIAqUHeX4TBiXZZQbriYsG80lNBr7WYwHlluz/tlPXARrYSQTnPqMAMl/5AUbN7wakPkEH+yEPBBwy9QE9XmsDAyixAZ4C2QKveN8FO5P9A
lpc_rms=-16.62
offset=587
pitch_keycenter=a4
sample=Clarinet_accent_FF_A4.opus
tune=-24
</region>

<region>
hikey=a5
hivel=127
lokey=g#5
loop_end=292376
loop_mode=loop_continuous
loop_start=88103
loop_xfade=24478
lovel=1
lpc=lKhKQkfMpsLrC7lC9TZNwvKNv0G9QoJAy44AQVThc8FrKvNBls0rwWh4xEBR/mE/b5e6QYM86cGVWhFCSNgBwUe5FsHJY/1BDN5IwcKL1r9C57BB98gDwfG9yEAcGhVB
lpc_rms=-13.25
offset=827
pitch_keycenter=a5
sample=Clarinet_accent_FF_A5.opus
tune=-26
</region>

<region>
hikey=b3
hivel=127
lokey=a#3
loop_end=271593
loop_mode=loop_continuous
loop_start=88366
loop_xfade=24551
lovel=1
lpc=6VTWQT7io8IWq91CYc6zwsGhN0LLaSbB9M1XwPn3DsCG+zNBxOEPwb8dqz4nKexAj7QUwfiFUUAuSntATHEtwd5RdkGWlU3BKErQQNnPJL5H9pnATyzrQEH/q8B4Rbk/
lpc_rms=-16.05
offset=1046
pitch_keycenter=b3
sample=Clarinet_accent_FF_B3.opus
tune=-12
</region>

<region>
hikey=b4
hivel=127
lokey=a#4
loop_end=293655
loop_mode=loop_continuous
loop_start=87900
loop_xfade=24422
lovel=1
lpc=DruOQodOD8NEfvNCHNpRwtbwC0L65QXCVDtsQf6epcDpVU9AjZMbwEW1I0EOk5XBDZX6QGfVW0EXRYrB/CnWQM1N9762kNHA6nQxQQFyJMHXS19BWstZvwLbgsFjU51B
lpc_rms=-14.10
offset=204
pitch_keycenter=b4
sample=Clarinet_accent_FF_B4.opus
tune=-20
</region>

<region>
hikey=b5
hivel=127
lokey=a#5
loop_end=295833
loop_mode=loop_continuous
loop_start=87973
loop_xfade=24442
lovel=1
lpc=kXoRQkEnNcKByRxCZwC0wXHLUEHhrcXALEgVQbUjZcEi45FBiMlWwRBvK0GE8dDAmMrCQEep1MA9ZVJBhI5hwY0xgkFyfIbBTX+KQbfFGsHYpbNAMe+rwHPJOUHhOZjB
lpc_rms=-17.35
offset=649
pitch_keycenter=b5
sample=Clarinet_accent_FF_B5.opus
tune=-28
</region>

<region>
hikey=c#4
hivel=127
lokey=c4
loop_end=277686
loop_mode=loop_continuous
loop_start=87966
loop_xfade=24440
lovel=1
lpc=HH+tQcprhMJllqxC9p96whR44UF/fCTBAISWQI3zCcBKfc8/WFgmvyt0Or9VRPI/AFU/vxf6i8CshxJB5+JqweOrk0FUX1jB3zaJQAoH4b6NTyNAUxpawKGMAkDcqj2/
lpc_rms=-17.79
offset=555
pitch_keycenter=c#4
sample=Clarinet_accent_FF_C#4.opus
tune=-16
</region>

<region>
hikey=c#5
hivel=127
lokey=c5
loop_end=305978
loop_mode=loop_continuous
loop_start=91094
loop_xfade=25309
lovel=1
lpc=fAMZQlzntsL1gdxCsUKhwriUCUI7zgjAh+bQwGifND/Di6E/ZcOVvz3ZZkAn7C/AM3SwvbeIoECF5y7Bf3ZfQTbHksHnWplBmqK0wLMOFMGbJ7BB/1jPwSgfwkFmahbB
lpc_rms=-15.83
offset=14210
pitch_keycenter=c#5
sample=Clarinet_accent_FF_C#5.opus
tune=-25
</region>

<region>
hikey=c#6
hivel=127
lokey=c6
loop_end=284889
loop_mode=loop_continuous
loop_start=88049
loop_xfade=24463
lovel=1
lpc=hvBhQpPbhsKV8kpCBUa+wdLGsEG7d/LArjBCQfrquMBjimVBXlNewG6+CEE1WwTAU+xPQXmbDMEs95lBqwMvwcCQdkFApJ3AdARMQV60CcEM0bNBGFllwrwCPULe3TjB
lpc_rms=-16.25
offset=766
pitch_keycenter=c#6
sample=Clarinet_accent_FF_C#6.opus
tune=-35
</region>

<region>
hikey=d#4
hivel=127
lokey=d4
loop_end=280033
loop_mode=loop_continuous
loop_start=88770
loop_xfade=24664
lovel=1
lpc=QRPSQU6hmMKdM75C3HmLwr16EUL6sIPBlWUJQdJvKcEkBTNBioynv14cBsFfTx5BEtFkwNVJdcCZKKZA9WKRwBLqzEBD52fAlCVIwLGdjECZAIzA05rsQFJxCsGNdohA
lpc_rms=-17.45
offset=1047
pitch_keycenter=d#4
sample=Clarinet_accent_FF_D#4.opus
tune=-12
</region>

<region>
hikey=d#5
hivel=127
lokey=d5
loop_end=279837
loop_mode=loop_continuous
loop_start=88409
loop_xfade=24563
lovel=1
lpc=lSARQYzivsGpF+xBHH2swVRaKkEQkG7Ag//8PteROz97bo4/XFmfwAKSB0GqsR7BdjYwQcf+OcHZZSBB0b/RwFnlM0DNayFA7VHHwENglUDvWtw/WPqwwNYtaEDAxNm+
lpc_rms=-23.14
offset=2107
pitch_keycenter=d#5
sample=Clarinet_accent_FF_D#5.opus
tune=-30
</region>

<region>
hikey=d#6
hivel=127
lokey=d6
loop_end=293414
loop_mode=loop_continuous
loop_start=87080
loop_xfade=24194
lovel=1
lpc=XwQcQjZaPsLooh5CJg5nwfUvGkGOz5C/z0LQQAh3LMDXM9VApyzevP3ptT+/nZVAuB6hPpRHMEC8AShAWDHLP1/wCECD9VhAIi0cwE3s6sGJSytCdBICwh+bWEFzI5bA
lpc_rms=-18.47
offset=430
pitch_keycenter=d#6
sample=Clarinet_accent_FF_D#6.opus
tune=-40
</region>

<region>
hikey=f4
hivel=127
lokey=e4
loop_end=272554
loop_mode=loop_continuous
loop_start=88036
loop_xfade=24460
lovel=1
lpc=4Mn8QdBzrcLK78tClmyOwoS7HkJJvN/ByGDQQYbjyMHG/ZNBFdfJwA3+or4Eb/S/QfDkQN5kFcGGfjJB56WKwVRJn0Fcbl/BNfqyQDL997+FAQ9A+j2gPy3eycAsEY5A
lpc_rms=-17.23
offset=373
pitch_keycenter=f4
sample=Clarinet_accent_FF_F4.opus
tune=-20
</region>

<region>
hikey=f5
hivel=127
lokey=e5
loop_end=297521
loop_mode=loop_continuous
loop_start=91141
loop_xfade=25322
lovel=1
lpc=Og77QcVYosLRtspCTa6dws0rHkLjfKG8VOSOwVxvPkFqSeG/8krSP9JjOMCearFAEzISwP8Sx8CpqD1BjnYZwQF9GEExhNnAutT4Pp64wkCJ3jHBG86fQYthnsHyaRtB
lpc_rms=-14.93
offset=11755
pitch_keycenter=f5
sample=Clarinet_accent_FF_F5.opus
tune=-30
</region>

<region>
hikey=f6
hivel=127
lokey=e6
loop_end=287573
loop_mode=loop_continuous
loop_start=87330
loop_xfade=24264
lovel=1
lpc=ieOqQVMs2cGv+eRBOBWIwTpXk0H/RabAP3JTQKyNkkBw/SpAEnudQA74FT8taeBAvCg2P4qtekAQ6qBAqpyfPz+WXEC3WmfBvavFQY8fnMFJB4hBMEhlwcyMH0Fzkdu/
lpc_rms=-14.69
offset=7266
pitch_keycenter=f6
sample=Clarinet_accent_FF_F6.opus
tune=-28
</region>

<region>
hivel=127
key=g3
loop_end=262883
loop_mode=loop_continuous
loop_start=79832
loop_xfade=22180
lovel=1
lpc=agOtQbXvbcI1KIZChgwiwjwaJEFzCtxAYr0YwWSX5j9hud9AF/6AwOXpy7/5FuC/aOmbQGgjecDyLUFARv8iwA2Eej9M/1C/2E/1P4+ljr6OiB/A9BIgQChlh794Tow+
lpc_rms=-16.71
offset=1005
sample=Clarinet_accent_FF_G3.opus
tune=+5
</region>

<region>
hikey=g4
hivel=127
lokey=f#4
loop_end=271665
loop_mode=loop_continuous
loop_start=88136
loop_xfade=24487
lovel=1
lpc=uYzNQbHuhcJGoJVC9DhDwoO32EGveavBKLumQT4zoMELymJBjuTHv1rpGsGUghpBoZjAP5nvOsHo/01BJDVXwcichUEaQmzB8vISQSCrssBW1w1AdxmFQIQPCcEmh6pA
lpc_rms=-18.05
offset=1351
pitch_keycenter=g4
sample=Clarinet_accent_FF_G4.opus
tune=-21
</region>

<region>
hikey=g5
hivel=127
lokey=f#5
loop_end=294138
loop_mode=loop_continuous
loop_start=88218
loop_xfade=24510
lovel=1
lpc=nU+qQWW+JMJlHiZC1VCrwe3BlkCIsBBAWEkMQankdsHPwhtBysnMQMHjMMF6AG5AEZBZQeWVkcHDxlBBzbSKwNKWy0Bx5jPBVkWUQXDtbMGn8xBB03d5v57iZMDN5M9A
lpc_rms=-15.91
offset=1869
pitch_keycenter=g5
sample=Clarinet_accent_FF_G5.opus
tune=-32
</region>

<region>
hikey=C7
hivel=127
lokey=f#6
loop_end=273464
loop_mode=loop_continuous
loop_start=83046
loop_xfade=23073
lovel=1
lpc=ox8rQguXIcLAIulBcxwjv2LzokCB8C5B9HX5P0r99MAHLmNBkkxmv640AEEYpTFA/W7uQEdZ07+gh4JB4D4zwkdfG0LluDjBExOgwHFQnUApQPjA67j8P/3XIkFLRmnA
lpc_rms=-15.17
offset=417
pitch_keycenter=G6
sample=Clarinet_accent_FF_G6.opus
tune=-18
</region>
</group>